<?xml version="1.0" encoding="UTF-8" standalone="no"?>
<svg
   width="68"
   height="68"
   viewBox="0 0 68 68"
   fill="none"
   version="1.1"
   id="svg18"
   sodipodi:docname="DeepL_Logo.svg"
   inkscape:version="1.1 (ce6663b3b7, 2021-05-25)"
   xmlns:inkscape="http://www.inkscape.org/namespaces/inkscape"
   xmlns:sodipodi="http://sodipodi.sourceforge.net/DTD/sodipodi-0.dtd"
   xmlns="http://www.w3.org/2000/svg"
   xmlns:svg="http://www.w3.org/2000/svg">
  <defs
     id="defs22" />
  <sodipodi:namedview
     id="namedview20"
     pagecolor="#ffffff"
     bordercolor="#666666"
     borderopacity="1.0"
     inkscape:pageshadow="2"
     inkscape:pageopacity="0.0"
     inkscape:pagecheckerboard="0"
     showgrid="false"
     width="55px"
     inkscape:zoom="7.8586022"
     inkscape:cx="68.396387"
     inkscape:cy="38.747349"
     inkscape:window-width="1856"
     inkscape:window-height="1016"
     inkscape:window-x="64"
     inkscape:window-y="27"
     inkscape:window-maximized="1"
     inkscape:current-layer="svg18" />
  <path
     d="m 7.188,17.2741 v 26.8107 c 0,1.3927 0.730313,2.6694 1.92188,3.3658 l 23.06252,13.386 c 1.1915,0.6964 2.6522,0.6964 3.8437,0 l 23.0625,-13.386 c 1.1916,-0.6964 1.9219,-1.9731 1.9219,-3.3658 V 17.2741 c 0,-1.3928 -0.7303,-2.6695 -1.9219,-3.3658 L 36.0161,0.522285 c -1.1915,-0.69638 -2.6522,-0.69638 -3.8437,0 L 9.10988,13.947 C 7.918313,14.6433 7.188,15.92 7.188,17.2741 Z"
     fill="#0f2b46"
     id="path2" />
  <path
     d="m 43.7036,67.5303 -0.0384,-5.8032 0.0384,-5.3389 -13.4531,3.3271"
     fill="#0f2b46"
     id="path4" />
  <path
     d="m 43.0884,55.9238 2.5369,-0.6577 -0.961,0.5416 c -0.5765,0.3482 -0.9609,0.9672 -0.9609,1.6636 v 1.0833 z"
     fill="#142c46"
     id="path6" />
  <path
     d="m 24.7909,18.4744 c 1.5375,-1.5088 3.9975,-1.5088 5.535,0 1.6528,1.5862 1.6528,4.217 0,5.8032 -1.5375,1.5088 -3.9975,1.5088 -5.535,0 -1.6528,-1.5862 -1.6528,-4.217 0,-5.8032 z"
     fill="#ffffff"
     id="path8" />
  <path
     d="m 42.0878,28.5716 c 1.5375,-1.5089 3.9975,-1.5089 5.535,0 1.6528,1.5862 1.6528,4.2169 0,5.8031 -1.5375,1.5089 -3.9975,1.5089 -5.535,0 -1.6528,-1.5862 -1.6528,-4.2169 0,-5.8031 z"
     fill="#ffffff"
     id="path10" />
  <path
     d="m 24.7909,39.2498 c 1.5375,-1.5088 3.9975,-1.5088 5.535,0 1.6528,1.5862 1.6528,4.217 0,5.8032 -1.5375,1.5088 -3.9975,1.5088 -5.535,0 -1.6528,-1.5862 -1.6528,-4.217 0,-5.8032 z"
     fill="#ffffff"
     id="path12" />
  <path
     d="m 29.481,23.5419 11.5312,6.693 1.9219,-1.0833 -11.5313,-6.7317 z"
     fill="#ffffff"
     id="path14" />
  <path
     d="M 41.781,35.1482 31.4028,41.1835 29.481,40.0616 39.8591,34.0649 Z"
     fill="#ffffff"
     id="path16" />
</svg>
